<svg aria-hidden="true" style="position: absolute; width: 0; height: 0; overflow: hidden;" version="1.1" xmlns="http://www.w3.org/2000/svg" xmlns:xlink="http://www.w3.org/1999/xlink">
<defs>
<symbol id="logo" viewBox="0 0 32 32">
<path d="M0 16v-16h32v32h-32v-16zM31 16v-15h-30v30h30v-15zM15.625 26.655c1.065-0.28 0.95 0.54 1.165-8.155 0.155-6.3 0.070-7.33-0.65-7.875-0.685-0.515 0.035-0.625 4.055-0.625 4.73 0 4.93 0.045 6.345 1.46 0.965 0.97 1.46 1.97 1.46 2.97 0 3.49-1.73 5.195-5.95 5.87l-2.050 0.33v2.7c0 2.335 0.155 2.765 1.125 3.155 0.815 0.325 0.085 0.445-2.625 0.425-2.060-0.015-3.355-0.13-2.875-0.255zM24 18.5c0.72-0.72 1-1.665 1-3.39 0-3.16-1.030-4.61-3.28-4.61h-1.72v9h1.5c0.835 0 1.945-0.445 2.5-1zM8.375 21.39c1.015-0.49 1.125-0.895 1.11-4.090-0.020-3.19-0.235-3.955-2.125-7.545-1.29-2.45-2.595-4.24-3.36-4.62-1.12-0.555-0.885-0.62 2.225-0.63 2.58-0.005 3.33 0.14 2.91 0.56s-0.095 1.51 1.26 4.25c1.005 2.025 1.945 3.68 2.090 3.67 0.41-0.015 3.515-6.35 3.515-7.17 0-0.405-0.28-0.845-0.625-0.985s0.385-0.255 1.625-0.255c1.81-0.005 2.055 0.090 1.245 0.48-0.55 0.27-1.955 2.27-3.125 4.445-1.96 3.66-2.12 4.245-2.12 7.745 0 3.46 0.095 3.825 1.125 4.24 0.81 0.325 0.005 0.45-2.875 0.45-3.235 0-3.785-0.105-2.875-0.545z"></path>
</symbol>
</defs>
</svg>
