<svg aria-hidden="true" style="position: absolute; width: 0; height: 0; overflow: hidden;" version="1.1" xmlns="http://www.w3.org/2000/svg" xmlns:xlink="http://www.w3.org/1999/xlink">
  <defs>

    <symbol id="logo" viewBox="0 0 32 32">
      <path d="M0 16v-16h32v32h-32v-16zM31 16v-15h-30v30h30v-15zM15.625 26.655c1.065-0.28 0.95 0.54 1.165-8.155 0.155-6.3 0.070-7.33-0.65-7.875-0.685-0.515 0.035-0.625 4.055-0.625 4.73 0 4.93 0.045 6.345 1.46 0.965 0.97 1.46 1.97 1.46 2.97 0 3.49-1.73 5.195-5.95 5.87l-2.050 0.33v2.7c0 2.335 0.155 2.765 1.125 3.155 0.815 0.325 0.085 0.445-2.625 0.425-2.060-0.015-3.355-0.13-2.875-0.255zM24 18.5c0.72-0.72 1-1.665 1-3.39 0-3.16-1.030-4.61-3.28-4.61h-1.72v9h1.5c0.835 0 1.945-0.445 2.5-1zM8.375 21.39c1.015-0.49 1.125-0.895 1.11-4.090-0.020-3.19-0.235-3.955-2.125-7.545-1.29-2.45-2.595-4.24-3.36-4.62-1.12-0.555-0.885-0.62 2.225-0.63 2.58-0.005 3.33 0.14 2.91 0.56s-0.095 1.51 1.26 4.25c1.005 2.025 1.945 3.68 2.090 3.67 0.41-0.015 3.515-6.35 3.515-7.17 0-0.405-0.28-0.845-0.625-0.985s0.385-0.255 1.625-0.255c1.81-0.005 2.055 0.090 1.245 0.48-0.55 0.27-1.955 2.27-3.125 4.445-1.96 3.66-2.12 4.245-2.12 7.745 0 3.46 0.095 3.825 1.125 4.24 0.81 0.325 0.005 0.45-2.875 0.45-3.235 0-3.785-0.105-2.875-0.545z"></path>
    </symbol>
    
    <symbol id="menu" viewBox="0 0 29 32">
      <path d="M3.203 6.515c-0.465 0.121-0.935 0.593-1.075 1.078-0.226 0.789 0.261 1.639 1.076 1.876 0.212 0.062 1.697 0.069 11.346 0.059l11.102-0.012 0.269-0.127c1.291-0.605 1.152-2.455-0.216-2.861-0.209-0.062-1.669-0.070-11.274-0.066-7.437 0.003-11.098 0.022-11.228 0.055zM3.203 14.511c-0.465 0.121-0.935 0.593-1.075 1.078-0.226 0.789 0.261 1.639 1.076 1.876 0.212 0.061 1.697 0.069 11.346 0.058l11.102-0.012 0.269-0.126c1.291-0.606 1.152-2.456-0.216-2.861-0.209-0.062-1.669-0.070-11.274-0.066-7.437 0.003-11.098 0.021-11.228 0.055zM3.203 22.508c-0.465 0.12-0.935 0.593-1.075 1.078-0.226 0.788 0.261 1.638 1.076 1.876 0.212 0.061 1.697 0.069 11.346 0.058l11.102-0.012 0.269-0.126c1.291-0.606 1.152-2.456-0.216-2.861-0.209-0.062-1.669-0.071-11.274-0.067-7.437 0.004-11.098 0.022-11.228 0.056z"></path>
    </symbol>

    <symbol id="close" viewBox="0 0 32 32">
       <path stroke-width="1.333" d="M23.466 7.9c.219 0 .355.065.462.172s.172.242.172.461c0 .219-.065.355-.172.462L16.923 16l7.005 7.004c.107.107.172.243.172.462s-.065.355-.172.462-.243.172-.462.172c-.219 0-.355-.065-.462-.172L16 16.923l-7.005 7.005c-.107.107-.243.172-.462.172s-.354-.065-.461-.172c-.107-.107-.172-.243-.172-.462s.065-.355.172-.462L15.076 16 8.072 8.995c-.107-.107-.172-.243-.172-.462s.065-.354.172-.461.242-.172.461-.172c.219 0 .355.065.462.172L16 15.076l7.004-7.004c.107-.107.243-.172.462-.172z"/>
    </symbol>

    <symbol id="logout" viewBox="0 0 32 32">
      <path d="M6.072 28.199c-.613 0-1.145-.225-1.595-.676s-.676-.982-.676-1.595V6.071c0-.616.225-1.149.676-1.601s.982-.678 1.595-.678h8.807c.321 0 .59.111.808.334s.327.495.327.816c0 .322-.109.59-.327.806s-.487.323-.808.323H6.072v19.857h8.807c.321 0 .59.11.808.329s.327.49.327.812c0 .322-.109.591-.327.806s-.487.323-.808.323H6.072zm17.784-11.063H13.088c-.32 0-.59-.11-.808-.329s-.327-.49-.327-.812c0-.322.109-.591.327-.806s.488-.323.808-.323h10.701l-2.564-2.564c-.227-.228-.334-.495-.323-.8s.13-.571.357-.795c.226-.229.496-.342.81-.34s.585.117.815.344l4.529 4.529c.221.228.332.494.332.797s-.111.568-.332.794l-4.496 4.496c-.222.226-.486.335-.792.327s-.577-.126-.812-.352c-.218-.227-.328-.497-.331-.811s.112-.586.344-.813l2.531-2.539z"/>
    </symbol>
    
    <!-- Icons social link -->
    <symbol id="whatsapp" viewBox="0 0 32 32">
      <path d="M27.281 4.65c-2.994-3-6.975-4.65-11.219-4.65-8.738 0-15.85 7.112-15.85 15.856 0 2.794 0.731 5.525 2.119 7.925l-2.25 8.219 8.406-2.206c2.319 1.262 4.925 1.931 7.575 1.931h0.006c0 0 0 0 0 0 8.738 0 15.856-7.113 15.856-15.856 0-4.238-1.65-8.219-4.644-11.219zM16.069 29.050v0c-2.369 0-4.688-0.637-6.713-1.837l-0.481-0.288-4.987 1.306 1.331-4.863-0.313-0.5c-1.325-2.094-2.019-4.519-2.019-7.012 0-7.269 5.912-13.181 13.188-13.181 3.519 0 6.831 1.375 9.319 3.862 2.488 2.494 3.856 5.8 3.856 9.325-0.006 7.275-5.919 13.188-13.181 13.188zM23.294 19.175c-0.394-0.2-2.344-1.156-2.706-1.288s-0.625-0.2-0.894 0.2c-0.262 0.394-1.025 1.288-1.256 1.556-0.231 0.262-0.462 0.3-0.856 0.1s-1.675-0.619-3.188-1.969c-1.175-1.050-1.975-2.35-2.206-2.744s-0.025-0.613 0.175-0.806c0.181-0.175 0.394-0.463 0.594-0.694s0.262-0.394 0.394-0.662c0.131-0.262 0.069-0.494-0.031-0.694s-0.894-2.15-1.219-2.944c-0.319-0.775-0.65-0.669-0.894-0.681-0.231-0.012-0.494-0.012-0.756-0.012s-0.694 0.1-1.056 0.494c-0.363 0.394-1.387 1.356-1.387 3.306s1.419 3.831 1.619 4.1c0.2 0.262 2.794 4.269 6.769 5.981 0.944 0.406 1.681 0.65 2.256 0.837 0.95 0.3 1.813 0.256 2.494 0.156 0.762-0.113 2.344-0.956 2.675-1.881s0.331-1.719 0.231-1.881c-0.094-0.175-0.356-0.275-0.756-0.475z"></path>
    </symbol>
    
    <symbol id="telegram" viewBox="0 0 32 32">
      <path d="M13.040 24.867l0.373-5.64 10.24-9.227c0.453-0.413-0.093-0.613-0.693-0.253l-12.64 7.987-5.467-1.733c-1.173-0.333-1.187-1.147 0.267-1.733l21.293-8.213c0.973-0.44 1.907 0.24 1.533 1.733l-3.627 17.080c-0.253 1.213-0.987 1.507-2 0.947l-5.52-4.080-2.653 2.573c-0.307 0.307-0.56 0.56-1.107 0.56z"></path>
    </symbol>
    
    <symbol id="phone" viewBox="0 0 32 32">
      <path d="M22 20c-2 2-2 4-4 4s-4-2-6-4-4-4-4-6 2-2 4-4-4-8-6-8-6 6-6 6c0 4 4.109 12.109 8 16s12 8 16 8c0 0 6-4 6-6s-6-8-8-6z"></path>
    </symbol>
    
    <symbol id="mail" viewBox="0 0 28 32">
      <path d="M0 8v16c0 1.1 0.9 2 2 2h24c1.1 0 2-0.9 2-2v-16c0-1.1-0.9-2-2-2h-24c-1.1 0-2 0.9-2 2zM26 8l-12 10-12-10h24zM2 11l8 6-8 6v-12zM4 24l7-6 3 3 3-3 7 6h-20zM26 23l-8-6 8-6v12z"></path>
    </symbol>

    <symbol id="instagram" viewBox="0 0 32 32">
      <path d="M16 2.881c4.275 0 4.781 0.019 6.462 0.094 1.563 0.069 2.406 0.331 2.969 0.55 0.744 0.288 1.281 0.638 1.837 1.194 0.563 0.563 0.906 1.094 1.2 1.838 0.219 0.563 0.481 1.412 0.55 2.969 0.075 1.688 0.094 2.194 0.094 6.463s-0.019 4.781-0.094 6.463c-0.069 1.563-0.331 2.406-0.55 2.969-0.288 0.744-0.637 1.281-1.194 1.837-0.563 0.563-1.094 0.906-1.837 1.2-0.563 0.219-1.413 0.481-2.969 0.55-1.688 0.075-2.194 0.094-6.463 0.094s-4.781-0.019-6.463-0.094c-1.563-0.069-2.406-0.331-2.969-0.55-0.744-0.288-1.281-0.637-1.838-1.194-0.563-0.563-0.906-1.094-1.2-1.837-0.219-0.563-0.481-1.413-0.55-2.969-0.075-1.688-0.094-2.194-0.094-6.463s0.019-4.781 0.094-6.463c0.069-1.563 0.331-2.406 0.55-2.969 0.288-0.744 0.638-1.281 1.194-1.838 0.563-0.563 1.094-0.906 1.838-1.2 0.563-0.219 1.412-0.481 2.969-0.55 1.681-0.075 2.188-0.094 6.463-0.094zM16 0c-4.344 0-4.887 0.019-6.594 0.094-1.7 0.075-2.869 0.35-3.881 0.744-1.056 0.412-1.95 0.956-2.837 1.85-0.894 0.888-1.438 1.781-1.85 2.831-0.394 1.019-0.669 2.181-0.744 3.881-0.075 1.713-0.094 2.256-0.094 6.6s0.019 4.887 0.094 6.594c0.075 1.7 0.35 2.869 0.744 3.881 0.413 1.056 0.956 1.95 1.85 2.837 0.887 0.887 1.781 1.438 2.831 1.844 1.019 0.394 2.181 0.669 3.881 0.744 1.706 0.075 2.25 0.094 6.594 0.094s4.888-0.019 6.594-0.094c1.7-0.075 2.869-0.35 3.881-0.744 1.050-0.406 1.944-0.956 2.831-1.844s1.438-1.781 1.844-2.831c0.394-1.019 0.669-2.181 0.744-3.881 0.075-1.706 0.094-2.25 0.094-6.594s-0.019-4.887-0.094-6.594c-0.075-1.7-0.35-2.869-0.744-3.881-0.394-1.063-0.938-1.956-1.831-2.844-0.887-0.887-1.781-1.438-2.831-1.844-1.019-0.394-2.181-0.669-3.881-0.744-1.712-0.081-2.256-0.1-6.6-0.1v0z"></path>
      <path d="M16 7.781c-4.537 0-8.219 3.681-8.219 8.219s3.681 8.219 8.219 8.219 8.219-3.681 8.219-8.219c0-4.537-3.681-8.219-8.219-8.219zM16 21.331c-2.944 0-5.331-2.387-5.331-5.331s2.387-5.331 5.331-5.331c2.944 0 5.331 2.387 5.331 5.331s-2.387 5.331-5.331 5.331z"></path>
      <path d="M26.462 7.456c0 1.060-0.859 1.919-1.919 1.919s-1.919-0.859-1.919-1.919c0-1.060 0.859-1.919 1.919-1.919s1.919 0.859 1.919 1.919z"></path>
    </symbol>

<!-- Icons Toggle button -->
    <symbol id="moon" viewBox="0 0 32 32">
      <path fill="#f7cf52" style="fill: var(--color1, #f7cf52)" d="M30.555 9.785c-0.225-0.103-0.547-0.23-0.934-0.343s-0.837-0.214-1.32-0.281c-0.208-0.030-0.423-0.051-0.64-0.068-0.017-0.217-0.038-0.432-0.068-0.64-0.067-0.483-0.168-0.934-0.281-1.32s-0.24-0.708-0.343-0.934c-0.102-0.225-0.182-0.354-0.182-0.354s-0.080 0.129-0.182 0.354c-0.103 0.225-0.23 0.547-0.343 0.934s-0.214 0.837-0.281 1.32c-0.030 0.207-0.051 0.421-0.068 0.638-0.217 0.017-0.432 0.038-0.64 0.067-0.241 0.034-0.475 0.075-0.696 0.122s-0.431 0.103-0.624 0.158c-0.193 0.058-0.37 0.117-0.527 0.176s-0.294 0.116-0.407 0.169c-0.225 0.103-0.354 0.183-0.354 0.183s0.129 0.080 0.354 0.183c0.113 0.052 0.25 0.109 0.407 0.169s0.334 0.118 0.527 0.176c0.193 0.055 0.402 0.112 0.624 0.158 0.221 0.048 0.455 0.089 0.696 0.122 0.207 0.029 0.422 0.051 0.638 0.067 0.017 0.217 0.038 0.431 0.067 0.638 0.034 0.242 0.075 0.475 0.122 0.696 0.046 0.221 0.103 0.431 0.158 0.624 0.058 0.193 0.117 0.37 0.176 0.527s0.116 0.294 0.169 0.406c0.103 0.225 0.183 0.354 0.183 0.354s0.080-0.129 0.183-0.354c0.052-0.113 0.109-0.25 0.169-0.406s0.118-0.334 0.176-0.527c0.055-0.193 0.112-0.402 0.158-0.624s0.089-0.455 0.122-0.696c0.029-0.208 0.051-0.423 0.067-0.64 0.217-0.017 0.431-0.038 0.638-0.068 0.483-0.067 0.934-0.168 1.32-0.281s0.708-0.24 0.934-0.343c0.225-0.102 0.354-0.182 0.354-0.182s-0.129-0.080-0.354-0.182z"></path>
      <path fill="#f7cf52" style="fill: var(--color1, #f7cf52)" d="M25.221 19.341c-0.035-0.026-0.085-0.071-0.149-0.115-0.129-0.091-0.313-0.203-0.534-0.303s-0.478-0.189-0.754-0.248c-0.042-0.009-0.086-0.017-0.129-0.024-0.008-0.043-0.015-0.087-0.024-0.129-0.059-0.276-0.148-0.534-0.248-0.754s-0.212-0.405-0.303-0.534c-0.044-0.064-0.089-0.115-0.115-0.149-0.028-0.035-0.046-0.053-0.046-0.053s-0.018 0.018-0.046 0.053c-0.026 0.035-0.071 0.085-0.115 0.149-0.091 0.129-0.203 0.313-0.303 0.534s-0.189 0.478-0.248 0.754c-0.009 0.042-0.016 0.085-0.024 0.127-0.043 0.008-0.087 0.015-0.129 0.024-0.138 0.030-0.271 0.066-0.398 0.108s-0.246 0.091-0.356 0.14c-0.11 0.051-0.212 0.103-0.301 0.155s-0.168 0.103-0.232 0.149c-0.064 0.044-0.115 0.089-0.149 0.115-0.035 0.028-0.053 0.046-0.053 0.046s0.018 0.018 0.053 0.046c0.035 0.026 0.085 0.071 0.149 0.115 0.064 0.046 0.143 0.096 0.232 0.149s0.191 0.104 0.301 0.155c0.11 0.048 0.23 0.099 0.356 0.14s0.26 0.079 0.398 0.108c0.042 0.009 0.085 0.016 0.128 0.024 0.008 0.043 0.015 0.086 0.024 0.128 0.030 0.138 0.066 0.271 0.108 0.398s0.091 0.246 0.14 0.356c0.051 0.11 0.103 0.212 0.155 0.301s0.103 0.168 0.149 0.232c0.044 0.064 0.089 0.115 0.115 0.149 0.028 0.035 0.046 0.053 0.046 0.053s0.018-0.018 0.046-0.053c0.026-0.035 0.071-0.085 0.115-0.149 0.046-0.064 0.096-0.143 0.149-0.232s0.104-0.191 0.155-0.301c0.048-0.11 0.099-0.23 0.14-0.356s0.078-0.26 0.108-0.398c0.009-0.043 0.017-0.086 0.024-0.13 0.043-0.008 0.085-0.015 0.127-0.024 0.276-0.059 0.534-0.148 0.754-0.248s0.405-0.212 0.534-0.303c0.064-0.044 0.115-0.089 0.149-0.115 0.035-0.028 0.053-0.046 0.053-0.046s-0.018-0.018-0.053-0.046z"></path>
      <path fill="#f7cf52" style="fill: var(--color1, #f7cf52)" d="M5.998 4.030c-0.036-0.027-0.090-0.075-0.158-0.121-0.136-0.096-0.33-0.214-0.562-0.319s-0.504-0.199-0.795-0.261c-0.045-0.010-0.090-0.017-0.136-0.026-0.008-0.046-0.016-0.091-0.026-0.136-0.062-0.291-0.156-0.562-0.261-0.795s-0.223-0.426-0.319-0.562c-0.046-0.068-0.093-0.121-0.121-0.157-0.029-0.036-0.048-0.056-0.048-0.056s-0.019 0.019-0.048 0.056c-0.027 0.036-0.075 0.090-0.121 0.157-0.096 0.136-0.214 0.33-0.319 0.562s-0.199 0.504-0.261 0.795c-0.010 0.044-0.017 0.089-0.025 0.134-0.046 0.008-0.092 0.016-0.136 0.026-0.145 0.031-0.286 0.070-0.419 0.114s-0.259 0.096-0.376 0.147c-0.116 0.054-0.223 0.108-0.317 0.163s-0.177 0.108-0.245 0.157c-0.068 0.046-0.121 0.094-0.158 0.121-0.036 0.030-0.056 0.049-0.056 0.049s0.019 0.019 0.056 0.049c0.036 0.028 0.090 0.075 0.158 0.121 0.068 0.049 0.15 0.102 0.245 0.157s0.201 0.11 0.317 0.163c0.116 0.051 0.242 0.104 0.376 0.147s0.274 0.083 0.419 0.114c0.044 0.010 0.090 0.017 0.134 0.025 0.008 0.045 0.016 0.090 0.025 0.134 0.031 0.145 0.070 0.286 0.114 0.419 0.043 0.133 0.096 0.259 0.147 0.376 0.054 0.116 0.108 0.223 0.163 0.317s0.108 0.177 0.157 0.245c0.046 0.068 0.094 0.121 0.121 0.158 0.030 0.036 0.049 0.056 0.049 0.056s0.019-0.019 0.049-0.056c0.028-0.036 0.075-0.090 0.121-0.158 0.049-0.068 0.102-0.15 0.157-0.245s0.11-0.201 0.163-0.317c0.051-0.116 0.104-0.242 0.147-0.376 0.044-0.133 0.083-0.274 0.114-0.419 0.010-0.045 0.017-0.091 0.026-0.136 0.045-0.008 0.090-0.016 0.134-0.025 0.291-0.062 0.562-0.156 0.795-0.261s0.426-0.223 0.562-0.319c0.068-0.046 0.121-0.093 0.158-0.121 0.036-0.029 0.056-0.048 0.056-0.048s-0.019-0.019-0.056-0.048z"></path>
      <path fill="#f7cf52" style="fill: var(--color1, #f7cf52)" d="M21.633 0c1.788 0 3.507 0.293 5.112 0.834-6.33 2.133-10.888 8.117-10.888 15.166s4.558 13.033 10.888 15.166c-1.605 0.541-3.324 0.834-5.112 0.834-8.837 0-16-7.163-16-16s7.164-16 16-16z"></path>
      <path fill="#e2bc50" style="fill: var(--color2, #e2bc50)" d="M21.634 0c0.488 0 0.971 0.022 1.447 0.065-8.155 0.735-14.545 7.589-14.545 15.935 0 8.348 6.393 15.202 14.551 15.935-0.478 0.043-0.962 0.065-1.452 0.065-8.837 0-16.001-7.163-16.001-16s7.164-16 16.001-16z"></path>
    </symbol>

    <symbol id="sunny" viewBox="0 0 32 32">
      <path fill="#f0c419" style="fill: var(--color1, #f0c419)" d="M16 0c-0.294 0-0.533 0.239-0.533 0.533v3.2c0 0.294 0.239 0.533 0.533 0.533s0.533-0.239 0.533-0.533v-3.2c0-0.294-0.239-0.533-0.533-0.533z"></path>
      <path fill="#f0c419" style="fill: var(--color1, #f0c419)" d="M16 27.733c-0.294 0-0.533 0.239-0.533 0.533v3.2c0 0.294 0.239 0.533 0.533 0.533s0.533-0.239 0.533-0.533v-3.2c0-0.294-0.239-0.533-0.533-0.533z"></path>
      <path fill="#f0c419" style="fill: var(--color1, #f0c419)" d="M31.467 15.467h-3.2c-0.294 0-0.533 0.239-0.533 0.533s0.239 0.533 0.533 0.533h3.2c0.294 0 0.533-0.239 0.533-0.533s-0.239-0.533-0.533-0.533z"></path>
      <path fill="#f0c419" style="fill: var(--color1, #f0c419)" d="M4.267 16c0-0.294-0.239-0.533-0.533-0.533h-3.2c-0.294 0-0.533 0.239-0.533 0.533s0.239 0.533 0.533 0.533h3.2c0.294 0 0.533-0.239 0.533-0.533z"></path>
      <path fill="#f0c419" style="fill: var(--color1, #f0c419)" d="M24.674 7.859c0.137 0 0.273-0.052 0.377-0.156l3.059-3.059c0.209-0.209 0.209-0.546 0-0.754s-0.546-0.209-0.754 0l-3.059 3.059c-0.209 0.209-0.209 0.546 0 0.754 0.104 0.105 0.241 0.156 0.377 0.156z"></path>
      <path fill="#f0c419" style="fill: var(--color1, #f0c419)" d="M6.949 24.297l-3.059 3.059c-0.209 0.209-0.209 0.546 0 0.754 0.104 0.104 0.241 0.156 0.377 0.156s0.273-0.052 0.377-0.156l3.059-3.059c0.209-0.209 0.209-0.546 0-0.754s-0.546-0.209-0.754 0z"></path>
      <path fill="#f0c419" style="fill: var(--color1, #f0c419)" d="M25.051 24.297c-0.209-0.209-0.546-0.209-0.754 0s-0.209 0.546 0 0.754l3.059 3.059c0.104 0.104 0.241 0.156 0.377 0.156s0.273-0.052 0.377-0.156c0.209-0.209 0.209-0.546 0-0.754l-3.059-3.059z"></path>
      <path fill="#f0c419" style="fill: var(--color1, #f0c419)" d="M4.644 3.89c-0.209-0.209-0.546-0.209-0.754 0s-0.209 0.546 0 0.754l3.059 3.059c0.104 0.104 0.241 0.156 0.377 0.156s0.273-0.052 0.377-0.156c0.209-0.209 0.209-0.546 0-0.754l-3.059-3.059z"></path>
      <path fill="#f0c419" style="fill: var(--color1, #f0c419)" d="M26.801 11.415c0.086 0.203 0.284 0.325 0.491 0.325 0.069 0 0.14-0.014 0.208-0.043l1.473-0.625c0.271-0.115 0.398-0.428 0.283-0.699s-0.429-0.398-0.699-0.283l-1.473 0.625c-0.271 0.115-0.398 0.428-0.283 0.699z"></path>
      <path fill="#f0c419" style="fill: var(--color1, #f0c419)" d="M5.199 20.585c-0.115-0.271-0.428-0.398-0.699-0.283l-1.473 0.625c-0.271 0.115-0.398 0.428-0.283 0.699 0.086 0.203 0.284 0.325 0.491 0.325 0.069 0 0.14-0.014 0.208-0.043l1.473-0.625c0.271-0.115 0.398-0.428 0.283-0.699z"></path>
      <path fill="#f0c419" style="fill: var(--color1, #f0c419)" d="M29.057 20.7l-1.483-0.6c-0.273-0.11-0.584 0.022-0.694 0.295s0.022 0.584 0.295 0.694l1.484 0.599c0.066 0.026 0.133 0.039 0.199 0.039 0.211 0 0.411-0.126 0.495-0.334 0.11-0.273-0.022-0.583-0.295-0.694z"></path>
      <path fill="#f0c419" style="fill: var(--color1, #f0c419)" d="M2.943 11.3l1.483 0.599c0.066 0.026 0.133 0.039 0.199 0.039 0.211 0 0.411-0.126 0.495-0.334 0.11-0.273-0.022-0.584-0.295-0.694l-1.484-0.599c-0.274-0.11-0.584 0.021-0.694 0.295-0.11 0.273 0.022 0.583 0.295 0.694z"></path>
      <path fill="#f0c419" style="fill: var(--color1, #f0c419)" d="M21.284 27.083c-0.115-0.271-0.428-0.397-0.699-0.283s-0.398 0.428-0.283 0.699l0.625 1.473c0.086 0.203 0.284 0.325 0.491 0.325 0.069 0 0.14-0.014 0.208-0.043 0.271-0.115 0.398-0.428 0.283-0.699l-0.625-1.473z"></path>
      <path fill="#f0c419" style="fill: var(--color1, #f0c419)" d="M11.207 5.242c0.069 0 0.14-0.014 0.208-0.043 0.271-0.115 0.398-0.428 0.283-0.699l-0.625-1.473c-0.115-0.271-0.428-0.398-0.699-0.283s-0.398 0.428-0.283 0.699l0.625 1.473c0.086 0.203 0.284 0.325 0.491 0.325z"></path>
      <path fill="#f0c419" style="fill: var(--color1, #f0c419)" d="M11.605 26.879c-0.273-0.109-0.584 0.021-0.694 0.295l-0.599 1.484c-0.11 0.273 0.022 0.584 0.295 0.694 0.066 0.026 0.133 0.039 0.199 0.039 0.211 0 0.411-0.126 0.495-0.334l0.599-1.484c0.11-0.273-0.022-0.584-0.295-0.694z"></path>
      <path fill="#f0c419" style="fill: var(--color1, #f0c419)" d="M20.595 5.16c0.211 0 0.411-0.126 0.495-0.334l0.599-1.484c0.11-0.273-0.022-0.584-0.295-0.694s-0.584 0.022-0.694 0.295l-0.599 1.484c-0.11 0.273 0.022 0.584 0.295 0.694 0.066 0.026 0.133 0.039 0.199 0.039z"></path>
      <path fill="#f0c419" style="fill: var(--color1, #f0c419)" d="M26.667 16c0 5.891-4.776 10.667-10.667 10.667s-10.667-4.776-10.667-10.667c0-5.891 4.776-10.667 10.667-10.667s10.667 4.776 10.667 10.667z"></path>
      <path fill="#ede21b" style="fill: var(--color2, #ede21b)" d="M24 16c0 4.418-3.582 8-8 8s-8-3.582-8-8c0-4.418 3.582-8 8-8s8 3.582 8 8z"></path>
    </symbol>

<!-- Icons arrow -->
    <symbol id="arrow" viewBox="0 0 24 24">
      <path d="M5.859 4.125l2.156-2.109 9.984 9.984-9.984 9.984-2.156-2.109 7.922-7.875z"></path>
    </symbol>

  </defs>
</svg>
